<svg width="20" height="21" viewBox="0 0 20 21" fill="none" xmlns="http://www.w3.org/2000/svg">
<g clip-path="url(#clip0_1068_36026)">
<path d="M10 0.5C4.4775 0.5 0 4.9775 0 10.5C0 15.5133 3.69333 19.6533 8.505 20.3767V13.15H6.03083V10.5217H8.505V8.7725C8.505 5.87667 9.91583 4.60583 12.3225 4.60583C13.475 4.60583 14.085 4.69167 14.3733 4.73V7.02417H12.7317C11.71 7.02417 11.3533 7.99333 11.3533 9.085V10.5217H14.3475L13.9417 13.15H11.3533V20.3975C16.2342 19.7358 20 15.5625 20 10.5C20 4.9775 15.5225 0.5 10 0.5Z" fill="#1977F3"/>
</g>
<defs>
<clipPath id="clip0_1068_36026">
<rect width="20" height="20" fill="white" transform="translate(0 0.5)"/>
</clipPath>
</defs>
</svg>
