<svg width="24" height="24" viewBox="0 0 24 24" fill="none" xmlns="http://www.w3.org/2000/svg">
<g opacity="0.8">
<path d="M19.6799 1.91998H4.31992C2.99512 1.91998 1.91992 2.99518 1.91992 4.31998V19.68C1.91992 21.0048 2.99512 22.08 4.31992 22.08H19.6799C21.0047 22.08 22.0799 21.0048 22.0799 19.68V4.31998C22.0799 2.99518 21.0047 1.91998 19.6799 1.91998ZM8.15992 9.59998V18.72H5.27992V9.59998H8.15992ZM5.27992 6.94558C5.27992 6.27358 5.85592 5.75998 6.71992 5.75998C7.58392 5.75998 8.12632 6.27358 8.15992 6.94558C8.15992 7.61758 7.62232 8.15998 6.71992 8.15998C5.85592 8.15998 5.27992 7.61758 5.27992 6.94558ZM18.7199 18.72H15.8399C15.8399 18.72 15.8399 14.2752 15.8399 13.92C15.8399 12.96 15.3599 12 14.1599 11.9808H14.1215C12.9599 11.9808 12.4799 12.9696 12.4799 13.92C12.4799 14.3568 12.4799 18.72 12.4799 18.72H9.59992V9.59998H12.4799V10.8288C12.4799 10.8288 13.4063 9.59998 15.2687 9.59998C17.1743 9.59998 18.7199 10.9104 18.7199 13.5648V18.72Z" fill="#09090B"/>
</g>
</svg>
