<svg width="24" height="24" viewBox="0 0 24 24" fill="none" xmlns="http://www.w3.org/2000/svg">
<g opacity="0.8">
<path d="M14.6295 11.5617C13.4212 11.5617 12.4382 10.5787 12.4382 9.37042V4.11129C12.4382 2.903 13.4212 1.91998 14.6295 1.91998C15.8378 1.91998 16.8208 2.903 16.8208 4.11129V9.37042C16.8208 10.5787 15.8378 11.5617 14.6295 11.5617ZM19.8886 11.5617H18.1356C17.8932 11.5617 17.6973 11.3658 17.6973 11.1235V9.37042C17.6973 8.16213 18.6803 7.17911 19.8886 7.17911C21.0969 7.17911 22.0799 8.16213 22.0799 9.37042C22.0799 10.5787 21.0969 11.5617 19.8886 11.5617ZM9.37036 11.5617H4.11123C2.90294 11.5617 1.91992 10.5787 1.91992 9.37042C1.91992 8.16213 2.90294 7.17911 4.11123 7.17911H9.37036C10.5786 7.17911 11.5617 8.16213 11.5617 9.37042C11.5617 10.5787 10.5786 11.5617 9.37036 11.5617ZM11.1234 6.30259H9.37036C8.16207 6.30259 7.17905 5.31957 7.17905 4.11129C7.17905 2.903 8.16207 1.91998 9.37036 1.91998C10.5786 1.91998 11.5617 2.903 11.5617 4.11129V5.86433C11.5617 6.10669 11.3658 6.30259 11.1234 6.30259ZM9.37036 22.08C8.16207 22.08 7.17905 21.097 7.17905 19.8887V14.6295C7.17905 13.4213 8.16207 12.4382 9.37036 12.4382C10.5786 12.4382 11.5617 13.4213 11.5617 14.6295V19.8887C11.5617 21.097 10.5786 22.08 9.37036 22.08ZM4.11123 16.8209C2.90294 16.8209 1.91992 15.8378 1.91992 14.6295C1.91992 13.4213 2.90294 12.4382 4.11123 12.4382H5.86427C6.10663 12.4382 6.30253 12.6341 6.30253 12.8765V14.6295C6.30253 15.8378 5.31951 16.8209 4.11123 16.8209ZM19.8886 16.8209H14.6295C13.4212 16.8209 12.4382 15.8378 12.4382 14.6295C12.4382 13.4213 13.4212 12.4382 14.6295 12.4382H19.8886C21.0969 12.4382 22.0799 13.4213 22.0799 14.6295C22.0799 15.8378 21.0969 16.8209 19.8886 16.8209ZM14.6295 22.08C13.4212 22.08 12.4382 21.097 12.4382 19.8887V18.1356C12.4382 17.8933 12.6341 17.6974 12.8764 17.6974H14.6295C15.8378 17.6974 16.8208 18.6804 16.8208 19.8887C16.8208 21.097 15.8378 22.08 14.6295 22.08Z" fill="#09090B"/>
</g>
</svg>
